<?xml version="1.0" standalone="no"?>
<!DOCTYPE svg PUBLIC "-//W3C//DTD SVG 20010904//EN"
 "http://www.w3.org/TR/2001/REC-SVG-20010904/DTD/svg10.dtd">
<svg version="1.0" xmlns="http://www.w3.org/2000/svg"
 width="512.000000pt" height="512.000000pt" viewBox="0 0 512.000000 512.000000"
 preserveAspectRatio="xMidYMid meet">
<metadata>
Created by potrace 1.16, written by Peter Selinger 2001-2019
</metadata>
<g transform="translate(0.000000,512.000000) scale(0.100000,-0.100000)"
fill="#000000" stroke="none">
<path d="M2240 5105 c-389 -48 -766 -188 -1091 -404 -504 -335 -871 -825
-1043 -1395 -41 -132 -81 -333 -96 -468 -13 -125 -13 -431 0 -556 108 -1014
825 -1880 1804 -2176 132 -41 333 -81 468 -96 125 -13 431 -13 556 0 592 63
1141 332 1563 766 289 299 494 645 613 1038 74 243 106 468 106 746 0 209 -10
324 -46 505 -181 920 -867 1676 -1768 1949 -132 41 -333 81 -468 96 -131 14
-469 11 -598 -5z m1030 -1265 l0 -290 -206 0 c-314 0 -313 0 -314 -307 l0
-193 259 0 260 0 -5 -32 c-7 -53 -54 -521 -54 -540 0 -17 -16 -18 -230 -18
l-230 0 0 -840 0 -840 -350 0 -350 0 0 840 0 840 -165 0 -165 0 0 295 0 295
164 0 164 0 5 253 c6 293 15 348 82 484 91 184 248 295 473 333 26 4 185 8
355 9 l307 1 0 -290z"/>
</g>
</svg>
